<?xml version="1.0" encoding="utf-8"?>
<!-- Generator: Adobe Illustrator 25.0.1, SVG Export Plug-In . SVG Version: 6.00 Build 0)  -->
<svg version="1.1" id="Layer_1" xmlns="http://www.w3.org/2000/svg" xmlns:xlink="http://www.w3.org/1999/xlink" x="0px" y="0px"
	 viewBox="0 0 512 512" style="enable-background:new 0 0 512 512;" xml:space="preserve">
<style type="text/css">
	.st0{fill:#FF004F;}
</style>
<path class="st0" d="M498.1,5.6c10.1,7,15.4,19.1,13.5,31.2l-64,416c-1.5,9.7-7.4,18.2-16,23s-18.9,5.4-28,1.6L284,427.7l-68.5,74.1
	c-8.9,9.7-22.9,12.9-35.2,8.1S160,493.2,160,480v-83.6c0-4,1.5-7.8,4.2-10.7l167.6-182.9c5.8-6.3,5.6-16-0.4-22s-15.7-6.4-22-0.7
	L106,360.8l-88.3-44.2C7.1,311.3,0.3,300.7,0,288.9s5.9-22.8,16.1-28.7l448-256C474.8-1.9,488-1.3,498.1,5.6L498.1,5.6z"/>
</svg>
